<svg xmlns="http://www.w3.org/2000/svg" width="256" height="256" viewBox="0 0 256 256">

  <rect x="4.0" y="4.0" width="248" height="248" rx="44.0" ry="44.0" fill="snow" stroke="springgreen" stroke-width="8" />
  <g transform="translate(128.0,128.0) scale(7.466666666666666) translate(-12.0,-12.0)">
<ns0:defs xmlns:ns0="http://www.w3.org/2000/svg"><ns0:mask id="SVGSwRBedzm"><ns0:path fill="none" stroke="mediumslateblue" stroke-dasharray="46" stroke-linecap="round" stroke-linejoin="round" stroke-width="2" d="M5.64 19.36c-3.52 -3.51 -3.52 -9.21 0 -12.72c3.51 -3.52 9.21 -3.52 12.72 -0c3.52 3.51 3.52 9.21 0 12.72"><ns0:animate fill="freeze" attributeName="stroke-dashoffset" dur="0.5s" values="46;0" /></ns0:path><ns0:path d="M12 14c0 0 0 0 0 0c0 0 0 0 0 0c0 0 0 0 0 0c0 0 0 0 0 0Z" transform="rotate(-100 12 13)" fill="mediumslateblue"><ns0:animate fill="freeze" attributeName="d" begin="0.5s" dur="0.2s" to="M17 13c0 2.76 -2.24 5 -5 5c-2.76 0 -5 -2.24 -5 -5c0 -2.76 5 -15 5 -15c0 0 5 12.24 5 15Z" /><ns0:animateTransform attributeName="transform" begin="0.7s" dur="6s" keyTimes="0;0.08;0.2;0.28;0.36;0.44;0.52;0.6;0.76;0.84;0.92;1" repeatCount="indefinite" type="rotate" values="-100 12 13;65 12 13;65 12 13;30 12 13;10 12 13;0 12 13;35 12 13;55 12 13;75 12 13;15 12 13;-20 12 13;-100 12 13" /></ns0:path></ns0:mask></ns0:defs><ns0:g xmlns:ns0="http://www.w3.org/2000/svg" fill="mediumslateblue"><ns0:path d="M0 0h24v24H0z" mask="url(#SVGSwRBedzm)" fill="mediumslateblue" /><ns0:path d="M15 13c0 1.66 -1.34 3 -3 3c-1.66 0 -3 -1.34 -3 -3c0 -1.66 3 -11 3 -11c0 0 3 9.34 3 11Z" opacity="0" transform="rotate(-100 12 13)" fill="mediumslateblue"><ns0:set fill="freeze" attributeName="opacity" begin="0.5s" to="1" /><ns0:animate fill="freeze" attributeName="d" begin="0.5s" dur="0.2s" values="M12 14c0 0 0 0 0 0c0 0 0 0 0 0c0 0 0 0 0 0c0 0 0 0 0 0Z;M15 13c0 1.66 -1.34 3 -3 3c-1.66 0 -3 -1.34 -3 -3c0 -1.66 3 -11 3 -11c0 0 3 9.34 3 11Z" /><ns0:animateTransform attributeName="transform" begin="0.7s" dur="6s" keyTimes="0;0.08;0.2;0.28;0.36;0.44;0.52;0.6;0.76;0.84;0.92;1" repeatCount="indefinite" type="rotate" values="-100 12 13;65 12 13;65 12 13;30 12 13;10 12 13;0 12 13;35 12 13;55 12 13;75 12 13;15 12 13;-20 12 13;-100 12 13" /></ns0:path></ns0:g>
  </g>
</svg>